<?xml version="1.0" encoding="UTF-8" standalone="no"?>
<!-- Created with Inkscape (http://www.inkscape.org/) -->

<svg
   width="21.742399mm"
   height="19.366465mm"
   viewBox="0 0 21.742399 19.366465"
   version="1.1"
   id="svg1"
   inkscape:version="1.3.2 (091e20e, 2023-11-25, custom)"
   sodipodi:docname="Petrucci_favicon.svg"
   xml:space="preserve"
   inkscape:export-filename="..\2024\Petrucci_logo.png"
   inkscape:export-xdpi="96"
   inkscape:export-ydpi="96"
   xmlns:inkscape="http://www.inkscape.org/namespaces/inkscape"
   xmlns:sodipodi="http://sodipodi.sourceforge.net/DTD/sodipodi-0.dtd"
   xmlns="http://www.w3.org/2000/svg"
   xmlns:svg="http://www.w3.org/2000/svg"><sodipodi:namedview
     id="namedview1"
     pagecolor="#ffffff"
     bordercolor="#000000"
     borderopacity="0.25"
     inkscape:showpageshadow="2"
     inkscape:pageopacity="0.0"
     inkscape:pagecheckerboard="0"
     inkscape:deskcolor="#d1d1d1"
     inkscape:document-units="mm"
     inkscape:zoom="1.3504346"
     inkscape:cx="174.3883"
     inkscape:cy="191.41986"
     inkscape:window-width="1920"
     inkscape:window-height="1094"
     inkscape:window-x="-11"
     inkscape:window-y="-11"
     inkscape:window-maximized="1"
     inkscape:current-layer="layer1"
     inkscape:export-bgcolor="#ffffff00" /><defs
     id="defs1" /><g
     inkscape:label="Vrstva 1"
     inkscape:groupmode="layer"
     id="layer1"
     transform="translate(-62.634432,-45.252403)"><g
       id="g7"
       transform="translate(-5.7797744,-0.58777376)"><path
         d="m 276.12691,263.43777 q -3.744,-0.48 -6.048,-3.456 -2.304,-2.976 -2.304,-7.392 0,-6.912 5.376,-14.016 0.864,-1.152 1.536,-1.152 0.384,0 0.384,0.48 0,0.672 -0.768,1.728 -4.032,5.568 -4.032,12.384 0,3.84 1.536,6.24 1.536,2.4 4.416,2.4 10.752,-0.096 25.44,-29.856 -0.192,-0.096 -0.576,-0.096 -0.288,-0.096 -0.768,-0.096 -1.92,-0.192 -1.92,-1.344 0,-1.152 4.224,-0.864 1.92,-3.936 3.936,-8.544 2.112,-4.608 4.224,-9.792 2.208,-5.184 3.264,-7.776 1.152,-2.592 1.152,-2.592 0.384,-0.96 1.824,-0.96 1.152,0 2.208,0.768 1.152,0.768 1.152,1.728 0,0.096 -0.192,0.672 -1.536,3.552 -4.896,10.272 -3.36,6.72 -8.448,16.608 12.096,0.576 22.464,-4.608 9.408,-4.512 12.288,-10.656 1.728,-3.648 1.728,-6.72 0,-6.24 -6.528,-10.176 -4.992,-3.168 -12.48,-4.032 -4.992,-0.576 -9.984,-0.576 -18.144,0 -31.776,7.296 -12.384,6.432 -12.384,13.152 0,0.768 0.384,1.92 0.384,1.056 0.384,1.536 0,0.384 -0.288,0.384 -0.384,0 -1.44,-0.768 -2.496,-1.92 -2.496,-4.704 0,-7.2 11.616,-13.344 13.728,-7.2 36,-7.2 2.496,0 4.992,0.096 2.496,0.096 5.088,0.288 7.776,0.576 15.168,4.608 9.312,5.184 9.312,12.96 0,2.976 -1.248,5.856 -2.496,6.048 -13.728,10.848 -6.144,2.688 -13.152,4.128 -7.008,1.344 -14.976,1.536 -18.816,34.08 -29.664,32.832 z"
         id="text6"
         style="font-size:96px;font-family:Ephesis;-inkscape-font-specification:Ephesis;white-space:pre;stroke-width:2.89134"
         transform="matrix(0.26458333,0,0,0.26458333,-2.1551705,-4.5062655)"
         aria-label="P" /></g></g></svg>
